<svg width="35" height="35" viewBox="0 0 35 35" fill="none" xmlns="http://www.w3.org/2000/svg">
<path d="M20.125 31.9098C28.5442 30.7481 35 24.088 35 16.0447C35 7.18323 27.1652 0 17.5 0C7.83475 0 0 7.18323 0 16.0447C0 24.088 6.45575 30.7497 14.875 31.9098V20.8582H12.25C11.5538 20.8582 10.8861 20.6046 10.3938 20.1533C9.90156 19.7019 9.625 19.0898 9.625 18.4515C9.625 17.8132 9.90156 17.201 10.3938 16.7497C10.8861 16.2983 11.5538 16.0447 12.25 16.0447H14.875V12.8358C14.875 11.3464 15.5203 9.91806 16.669 8.86492C17.8176 7.81178 19.3755 7.22013 21 7.22013H21.875C22.5712 7.22013 23.2389 7.4737 23.7312 7.92504C24.2234 8.37639 24.5 8.98855 24.5 9.62685C24.5 10.2651 24.2234 10.8773 23.7312 11.3286C23.2389 11.78 22.5712 12.0336 21.875 12.0336H21C20.7679 12.0336 20.5454 12.1181 20.3813 12.2685C20.2172 12.419 20.125 12.623 20.125 12.8358V16.0447H22.75C23.4462 16.0447 24.1139 16.2983 24.6062 16.7497C25.0984 17.201 25.375 17.8132 25.375 18.4515C25.375 19.0898 25.0984 19.7019 24.6062 20.1533C24.1139 20.6046 23.4462 20.8582 22.75 20.8582H20.125V31.9098Z" fill="#0063DB"/>
</svg>
