<svg width="151" height="52" viewBox="0 0 151 52" fill="none" xmlns="http://www.w3.org/2000/svg">
<path d="M8.58755 29.5192V25.6161C8.58755 22.9158 11.2852 20.6125 14.3938 20.6125H23.549C26.0974 20.6125 27.6771 18.6608 27.6771 16.3768V8.58654C27.6771 6.36917 25.8089 4.70401 23.3212 4.33419C21.7811 4.10429 20.2218 3.99261 18.6603 4.00038C17.0937 4.00696 15.4763 4.12585 14.1595 4.33419C10.2804 4.94526 9.45525 6.2255 9.45525 8.58654V11.7058H18.5662V12.8676H6.37099C3.70713 12.8676 1.37474 14.2345 0.644999 16.9538C-0.196243 20.07 -0.233554 22.0662 0.644999 25.3202C1.29665 27.7421 2.85288 29.5192 5.5163 29.5192H8.58755ZM13.8172 9.62552C12.8671 9.62552 12.0974 8.93042 12.0974 8.0715C12.0974 7.20833 12.8666 6.50741 13.8172 6.50741C14.7639 6.50741 15.537 7.20872 15.537 8.0715C15.537 8.93042 14.7639 9.62552 13.8172 9.62552ZM37.2978 16.9538C36.6396 14.5862 35.3819 12.8676 32.715 12.8676H28.9786V16.3768C28.9786 19.1932 26.5994 21.7742 23.549 21.7742H14.3938C11.8861 21.7742 9.45525 23.4793 9.45525 25.7214V33.5117C9.45525 35.7287 11.7929 37.0329 14.2164 37.6684C17.1171 38.4301 19.7614 38.5676 23.2327 37.6684C25.5399 37.072 27.6771 35.8723 27.6771 33.5117V30.6809H18.5662V29.5192H32.7146C35.3784 29.5192 36.3711 27.8091 37.2973 25.3202C38.2544 22.7574 38.2136 20.2415 37.2978 16.9538ZM24.1256 32.4719C25.0757 32.4719 25.8458 33.167 25.8458 34.0267C25.8458 34.8891 25.0761 35.59 24.1256 35.59C23.1789 35.59 22.4062 34.8887 22.4062 34.0267C22.4062 33.167 23.1789 32.4719 24.1256 32.4719ZM6.37967 46.577C6.37967 45.1222 5.91487 44.3747 4.98527 44.3345C4.61594 44.318 4.24692 44.372 3.9028 44.4928C3.62282 44.5822 3.43323 44.6715 3.33402 44.7608V48.2336C3.92898 48.5667 4.45669 48.7212 4.91715 48.6972C5.89187 48.6404 6.37938 47.9337 6.37967 46.577ZM7.52634 46.6378C7.52692 47.3769 7.33198 47.9904 6.94151 48.4784C6.50621 49.0308 5.90286 49.315 5.13147 49.3307C4.55011 49.347 3.9511 49.1846 3.33445 48.8436V52L2.33746 51.6825V44.676C2.50117 44.4974 2.71101 44.343 2.96698 44.2129C3.56078 43.9038 4.28199 43.7453 5.13061 43.7373L5.14492 43.7497C5.92065 43.7412 6.5185 44.0253 6.93847 44.602C7.3301 45.1308 7.52605 45.8093 7.52634 46.6378ZM13.6215 48.7092C13.6215 49.7005 13.5102 50.387 13.2875 50.7686C13.0636 51.1506 12.6377 51.4551 12.0098 51.6821C11.5004 51.861 10.9497 51.9587 10.3577 51.9752L10.1928 51.4145C10.7941 51.3414 11.2176 51.2684 11.4631 51.1953C11.9461 51.0492 12.2785 50.8259 12.4601 50.5254C12.6059 50.2814 12.6786 49.8144 12.6783 49.1243V48.8923C12.0057 49.1668 11.2743 49.3079 10.5347 49.3059C10.0433 49.3062 9.61086 49.1683 9.23746 48.8923C8.81836 48.5913 8.60881 48.2095 8.60881 47.7469V44.0425L9.60624 43.7377V47.4669C9.60624 47.865 9.75028 48.1717 10.0384 48.387C10.4705 48.7099 10.6995 48.7053 11.1568 48.6979C11.6144 48.6894 12.1035 48.5309 12.6241 48.2224V43.8721H13.6215V48.7092ZM17.5145 49.2819C17.4052 49.2897 17.2957 49.2939 17.1861 49.2943C16.6218 49.2943 16.1824 49.1743 15.868 48.9342C15.5545 48.6933 15.3977 48.3612 15.3977 47.9378V44.4316H14.7149V43.8717H15.3977V42.3847L16.3939 42.0683V43.8717H17.5145V44.4316H16.3939V47.9134C16.3939 48.2477 16.4942 48.4839 16.695 48.622C16.8676 48.7362 17.1408 48.8015 17.5145 48.818V49.2819ZM23.5524 49.2087H22.5555V45.7727C22.5555 45.4231 22.4642 45.1225 22.2817 44.8708C22.0714 44.5865 21.7787 44.4443 21.4036 44.444C20.9463 44.444 20.3745 44.6593 19.6881 45.09V49.2087H18.6911V40.996L19.6881 40.7152V44.4557C20.325 44.0418 21.0215 43.8348 21.7776 43.8345C22.3057 43.8345 22.7335 43.993 23.0609 44.3101C23.3892 44.6268 23.5532 45.0209 23.5529 45.4923V49.2087H23.5524ZM28.8533 46.4372C28.8533 45.8783 28.7347 45.4163 28.4975 45.0512C28.2158 44.6062 27.7789 44.3715 27.1868 44.3472C26.0938 44.404 25.5474 45.1026 25.5477 46.443C25.5474 47.0574 25.6617 47.5707 25.8905 47.9827C26.1829 48.5078 26.6215 48.7662 27.2064 48.758C28.3043 48.7502 28.8533 47.9766 28.8533 46.4372ZM29.9457 46.443C29.9457 47.2387 29.7179 47.901 29.2624 48.43C28.7617 49.0222 28.07 49.3186 27.1873 49.3191C26.3126 49.3186 25.6296 49.0222 25.1382 48.43C24.6922 47.901 24.4692 47.2387 24.4692 46.443C24.4692 45.6954 24.7104 45.0656 25.1928 44.5536C25.7025 44.0099 26.3716 43.738 27.2003 43.7377C28.0287 43.738 28.7026 44.0099 29.222 44.5536C29.7042 45.0656 29.9454 45.6954 29.9457 46.443ZM35.663 49.2087H34.6656V45.5779C34.6656 45.1798 34.5314 44.8688 34.263 44.645C33.9946 44.4217 33.6371 44.3142 33.1905 44.3224C32.717 44.3307 32.2664 44.4687 31.8386 44.7364V49.2087H30.8412V44.6264C31.415 44.2534 31.9432 44.0099 32.4256 43.8961C32.8812 43.7902 33.2819 43.7373 33.6278 43.7373C33.8644 43.7373 34.0874 43.7577 34.2968 43.7985C34.6884 43.8793 35.007 44.0296 35.2526 44.2493C35.5262 44.4927 35.663 44.7853 35.663 45.1271V49.2087Z" fill="white"/>
<path d="M55.684 14.872C59.968 14.8 61.912 18.832 61.948 23.404C61.948 27.436 59.932 31.216 55.612 31.36C53.848 31.36 52.336 30.82 50.86 29.92V39.244L48.268 38.308L48.304 17.608C48.268 17.608 50.32 14.908 55.648 14.836L55.684 14.872ZM55.036 29.488C58.492 29.272 58.924 25.888 58.924 23.224C58.924 20.632 58.492 16.744 55.216 16.6C52.984 16.456 51.184 17.5 50.824 17.86V28.12C51.688 28.66 53.416 29.596 55.036 29.488ZM68.932 25.888V25.852C68.932 28.264 70.66 29.524 73 29.488C74.404 29.452 75.988 28.66 76.852 28.084V15.232H79.48V29.524C79.48 31.36 79.372 34.132 78.616 35.572C77.284 38.092 73.54 39.1 70.876 39.172L70.444 37.516C72.46 37.228 75.34 36.94 76.42 34.888C76.96 33.88 76.996 31.9 76.996 30.748C76.996 30.352 77.032 30.46 76.996 30.064C76.204 30.424 74.44 31.288 71.344 31.288C68.968 31.288 66.268 29.596 66.268 26.68V15.736L68.932 14.836V25.888ZM84.3167 16.924H82.5167V15.232H84.3167V10.84L86.9447 9.904V15.232H89.8967V16.924H86.9447V27.184C86.9447 29.272 88.0607 29.776 89.8967 29.848V31.216C86.4047 31.54 84.3167 29.956 84.3167 27.256V16.924ZM106.648 31H103.984V20.848C103.984 19.012 103.084 16.924 100.96 16.924C99.3042 16.924 97.7922 17.896 96.4602 18.832V31H93.8322V6.736L96.4602 5.908V16.96C98.0442 15.808 99.8442 15.124 101.968 15.124C104.776 15.124 106.648 17.284 106.648 20.02V31ZM109.806 22.828C109.806 18.58 112.506 14.872 117.006 14.836C121.542 14.872 124.206 18.58 124.242 22.828C124.242 27.184 121.866 31.288 116.97 31.324C112.11 31.288 109.806 27.184 109.806 22.828ZM112.65 22.828H112.686C112.686 25.852 113.658 29.668 117.042 29.704C120.714 29.596 121.362 25.852 121.362 22.828C121.362 19.984 120.354 16.816 116.97 16.636C113.37 16.852 112.65 19.984 112.65 22.828ZM140.56 31H137.932V20.272C137.932 17.86 136.348 16.528 134.044 16.564C132.64 16.6 131.308 17.212 130.48 17.788V31H127.852V17.464C129.184 16.492 130.372 15.736 132.028 15.304C133.324 14.944 135.088 14.584 136.96 15.016C138.868 15.448 140.56 16.816 140.56 18.94V31Z" fill="white"/>
<path d="M143.5 7C143.5 7.92826 143.869 8.8185 144.525 9.47487C145.182 10.1313 146.072 10.5 147 10.5C147.928 10.5 148.818 10.1313 149.475 9.47487C150.131 8.8185 150.5 7.92826 150.5 7C150.5 6.07174 150.131 5.1815 149.475 4.52513C148.818 3.86875 147.928 3.5 147 3.5C146.072 3.5 145.182 3.86875 144.525 4.52513C143.869 5.1815 143.5 6.07174 143.5 7ZM151 7C151 8.06087 150.579 9.07828 149.828 9.82843C149.078 10.5786 148.061 11 147 11C145.939 11 144.922 10.5786 144.172 9.82843C143.421 9.07828 143 8.06087 143 7C143 5.93913 143.421 4.92172 144.172 4.17157C144.922 3.42143 145.939 3 147 3C148.061 3 149.078 3.42143 149.828 4.17157C150.579 4.92172 151 5.93913 151 7ZM147.073 5.496C146.467 5.496 146.109 5.956 146.109 6.747V7.277C146.109 8.0625 146.461 8.508 147.073 8.508C147.562 8.508 147.894 8.215 147.938 7.799H148.585V7.8455C148.535 8.5695 147.908 9.079 147.07 9.079C146.025 9.079 145.435 8.411 145.435 7.2775V6.741C145.435 5.6105 146.036 4.922 147.07 4.922C147.911 4.922 148.538 5.449 148.585 6.208V6.252H147.938C147.894 5.8125 147.553 5.496 147.073 5.496Z" fill="white"/>
</svg>
