<svg width="35" height="35" viewBox="0 0 35 35" fill="none" xmlns="http://www.w3.org/2000/svg">
<path d="M35 4.15488C33.6891 4.86755 32.2991 5.33589 30.8759 5.54445C32.3744 4.43953 33.4957 2.70305 34.0316 0.657723C32.6237 1.68829 31.0802 2.41053 29.4731 2.80121C28.3925 1.37907 26.9601 0.435906 25.3987 0.118335C23.8373 -0.199236 22.2344 0.126584 20.8391 1.04514C19.4437 1.9637 18.3342 3.42353 17.6831 5.19768C17.0319 6.97183 16.8755 8.9609 17.2382 10.8557C14.3827 10.6805 11.5891 9.76825 9.03899 8.17831C6.48888 6.58836 4.23927 4.35626 2.43635 1.62704C1.7983 2.97541 1.46293 4.50806 1.46456 6.06818C1.46456 9.13031 2.73338 11.8355 4.65808 13.4194C3.51836 13.3727 2.4039 12.9942 1.40618 12.3149V12.4226C1.40613 14.4624 1.9797 16.4393 3.02961 18.0182C4.07952 19.5971 5.54113 20.6807 7.16654 21.0853C6.10833 21.4388 4.99852 21.4908 3.92151 21.2373C4.3798 22.9931 5.27312 24.5285 6.47633 25.6286C7.67954 26.7287 9.13238 27.3383 10.6313 27.3721C9.14137 28.8106 7.4356 29.874 5.61146 30.5016C3.78732 31.1292 1.88054 31.3087 0 31.0298C3.28229 33.6261 7.10318 35.0045 11.0056 35C24.2158 35 31.4373 21.5414 31.4373 9.86944C31.4373 9.48791 31.4305 9.10708 31.4167 8.72695C32.8218 7.47741 34.0346 5.92991 34.9983 4.15699" fill="#0063DB"/>
</svg>
